<svg xmlns="http://www.w3.org/2000/svg" width="96" height="96" viewBox="0 0 96 96" version="1.1"><path d="M 36 32 L 36 48 20 48 L 4 48 4 61.313 C 4 74.594, 4.007 74.632, 6.805 77.313 C 9.609 80, 9.609 80, 48.118 80 C 86.626 80, 86.626 80, 89.313 77.195 C 92 74.391, 92 74.391, 92 48 C 92 12.927, 94.947 16, 61.313 16 L 36 16 36 32 M 18.500 25 C 17.897 27.746, 17.488 28.001, 13.671 28.011 L 9.500 28.022 12.689 30.536 C 15.615 32.842, 15.792 33.300, 14.824 36.076 C 13.530 39.787, 14.373 40.877, 16.823 38.661 C 19.117 36.584, 20.422 36.575, 23.535 38.615 C 26.186 40.352, 26.560 39.603, 25.040 35.606 C 24.205 33.408, 24.495 32.755, 27.290 30.552 L 30.500 28.022 26.329 28.011 C 22.512 28.001, 22.103 27.746, 21.500 25 C 21.138 23.350, 20.463 22, 20 22 C 19.537 22, 18.862 23.350, 18.500 25" stroke="none" fill="#048c54" fill-rule="evenodd"/><path d="M 6.646 18.452 C 4.036 20.872, 4 21.086, 4 34.452 L 4 48 20 48 L 36 48 36 32 L 36 16 22.646 16 C 9.857 16, 9.180 16.104, 6.646 18.452 M 18.500 25 C 17.897 27.746, 17.488 28.001, 13.671 28.011 L 9.500 28.022 12.689 30.536 C 15.615 32.842, 15.792 33.300, 14.824 36.076 C 13.530 39.787, 14.373 40.877, 16.823 38.661 C 19.117 36.584, 20.422 36.575, 23.535 38.615 C 26.186 40.352, 26.560 39.603, 25.040 35.606 C 24.205 33.408, 24.495 32.755, 27.290 30.552 L 30.500 28.022 26.329 28.011 C 22.512 28.001, 22.103 27.746, 21.500 25 C 21.138 23.350, 20.463 22, 20 22 C 19.537 22, 18.862 23.350, 18.500 25" stroke="none" fill="#eff2f1" fill-rule="evenodd"/></svg>