<svg xmlns="http://www.w3.org/2000/svg" width="687" height="687" viewBox="0 0 687 687" version="1.1"><path d="M 9 186.500 L 9 212 344 212 L 679 212 679 186.500 L 679 161 344 161 L 9 161 9 186.500 M 9 296.500 L 9 321 344 321 L 679 321 679 296.500 L 679 272 344 272 L 9 272 9 296.500 M 9 403.500 L 9 428 344 428 L 679 428 679 403.500 L 679 379 344 379 L 9 379 9 403.500 M 9 515 L 9 539 344 539 L 679 539 679 515 L 679 491 344 491 L 9 491 9 515 M 201.250 594.750 C 279.762 594.891, 408.237 594.891, 486.750 594.750 C 565.262 594.609, 501.025 594.493, 344 594.493 C 186.975 594.493, 122.737 594.609, 201.250 594.750" stroke="none" fill="#da181a" fill-rule="evenodd"/><path d="M 54 107.576 C 37.630 111.875, 22.627 123.802, 15.670 138.046 C 12.214 145.123, 9 155.321, 9 159.210 C 9 160.926, 22.774 161, 344 161 C 665.226 161, 679 160.926, 679 159.210 C 679 155.321, 675.786 145.123, 672.330 138.046 C 665.277 123.605, 650.223 111.756, 633.540 107.515 C 624.738 105.278, 62.527 105.337, 54 107.576 M 9 242 L 9 272 344 272 L 679 272 679 242 L 679 212 344 212 L 9 212 9 242 M 9 350 L 9 379 344 379 L 679 379 679 350 L 679 321 344 321 L 9 321 9 350 M 9 459.500 L 9 491 344 491 L 679 491 679 459.500 L 679 428 344 428 L 9 428 9 459.500 M 9 541.290 C 9 545.627, 12.038 555.517, 15.631 562.875 C 18.074 567.876, 21.368 572.411, 25.866 576.963 C 33.227 584.411, 39.089 588.192, 48.676 591.671 L 55.091 594 344 594 L 632.909 594 639.324 591.671 C 648.911 588.192, 654.773 584.411, 662.134 576.963 C 666.632 572.411, 669.926 567.876, 672.369 562.875 C 675.962 555.517, 679 545.627, 679 541.290 L 679 539 344 539 L 9 539 9 541.290" stroke="none" fill="#f7c30d" fill-rule="evenodd"/></svg>