<svg xmlns="http://www.w3.org/2000/svg" width="96" height="96" viewBox="0 0 96 96" version="1.1"><path d="M 46.459 26.067 C 46.096 26.653, 46.014 27.348, 46.276 27.610 C 46.538 27.872, 47.019 27.392, 47.345 26.543 C 48.021 24.781, 47.445 24.471, 46.459 26.067 M 49 27 C 49 27.733, 49.300 28.033, 49.667 27.667 C 50.033 27.300, 50.033 26.700, 49.667 26.333 C 49.300 25.967, 49 26.267, 49 27 M 38 29.500 C 38 29.775, 38.225 30, 38.500 30 C 38.775 30, 39 29.775, 39 29.500 C 39 29.225, 38.775 29, 38.500 29 C 38.225 29, 38 29.225, 38 29.500 M 42 29.500 C 42 29.775, 42.225 30, 42.500 30 C 42.775 30, 43 29.775, 43 29.500 C 43 29.225, 42.775 29, 42.500 29 C 42.225 29, 42 29.225, 42 29.500 M 48 30.094 C 48 30.592, 48.900 31, 50 31 C 51.100 31, 52 30.827, 52 30.617 C 52 30.406, 51.100 29.998, 50 29.710 C 48.900 29.423, 48 29.595, 48 30.094 M 54 29.500 C 54 29.775, 54.225 30, 54.500 30 C 54.775 30, 55 29.775, 55 29.500 C 55 29.225, 54.775 29, 54.500 29 C 54.225 29, 54 29.225, 54 29.500 M 40 30.500 C 40 30.775, 40.225 31, 40.500 31 C 40.775 31, 41 30.775, 41 30.500 C 41 30.225, 40.775 30, 40.500 30 C 40.225 30, 40 30.225, 40 30.500 M 44.813 30.683 C 45.534 30.972, 46.397 30.936, 46.729 30.604 C 47.061 30.272, 46.471 30.036, 45.417 30.079 C 44.252 30.127, 44.015 30.364, 44.813 30.683 M 37.405 32.155 C 36.962 32.870, 37.130 33.038, 37.845 32.595 C 38.998 31.883, 39.393 31, 38.559 31 C 38.316 31, 37.797 31.520, 37.405 32.155 M 42 31.500 C 42 31.775, 42.225 32, 42.500 32 C 42.775 32, 43 31.775, 43 31.500 C 43 31.225, 42.775 31, 42.500 31 C 42.225 31, 42 31.225, 42 31.500 M 53 31.500 C 53 31.775, 53.225 32, 53.500 32 C 53.775 32, 54 31.775, 54 31.500 C 54 31.225, 53.775 31, 53.500 31 C 53.225 31, 53 31.225, 53 31.500 M 56.961 32.500 C 56.852 33.050, 56.816 33.837, 56.882 34.250 C 56.947 34.663, 56.550 35, 56 35 C 55.450 35, 55 35.546, 55 36.214 C 55 37.001, 55.569 36.859, 56.616 35.813 C 57.505 34.924, 57.990 33.590, 57.695 32.848 C 57.400 32.107, 57.069 31.950, 56.961 32.500 M 39 33.500 C 39 33.775, 39.225 34, 39.500 34 C 39.775 34, 40 33.775, 40 33.500 C 40 33.225, 39.775 33, 39.500 33 C 39.225 33, 39 33.225, 39 33.500 M 43 35 C 43 35.733, 43.300 36.033, 43.667 35.667 C 44.033 35.300, 44.033 34.700, 43.667 34.333 C 43.300 33.967, 43 34.267, 43 35 M 47 34.500 C 47 34.775, 47.225 35, 47.500 35 C 47.775 35, 48 34.775, 48 34.500 C 48 34.225, 47.775 34, 47.500 34 C 47.225 34, 47 34.225, 47 34.500 M 51 35 C 51 35.550, 51.477 36, 52.059 36 C 52.641 36, 52.840 35.550, 52.500 35 C 52.160 34.450, 51.684 34, 51.441 34 C 51.198 34, 51 34.450, 51 35 M 39.500 36 C 39.840 36.550, 40.316 37, 40.559 37 C 40.802 37, 41 36.550, 41 36 C 41 35.450, 40.523 35, 39.941 35 C 39.359 35, 39.160 35.450, 39.500 36 M 43 38 C 43 38.550, 43.450 39, 44 39 C 44.550 39, 45 38.550, 45 38 C 45 37.450, 44.550 37, 44 37 C 43.450 37, 43 37.450, 43 38 M 50 38 C 50 38.550, 50.702 39, 51.559 39 C 52.416 39, 52.840 38.550, 52.500 38 C 52.160 37.450, 51.459 37, 50.941 37 C 50.423 37, 50 37.450, 50 38 M 47 38.500 C 47 38.775, 47.225 39, 47.500 39 C 47.775 39, 48 38.775, 48 38.500 C 48 38.225, 47.775 38, 47.500 38 C 47.225 38, 47 38.225, 47 38.500 M 53.872 39.750 C 52.629 41.336, 52.664 41.371, 54.250 40.128 C 55.212 39.373, 56 38.585, 56 38.378 C 56 37.555, 55.179 38.084, 53.872 39.750 M 47.333 42.667 C 47.700 43.033, 48.300 43.033, 48.667 42.667 C 49.033 42.300, 48.733 42, 48 42 C 47.267 42, 46.967 42.300, 47.333 42.667 M 40 43.378 C 40 43.585, 40.788 44.373, 41.750 45.128 C 43.336 46.371, 43.371 46.336, 42.128 44.750 C 40.821 43.084, 40 42.555, 40 43.378 M 55 43.500 C 55 43.775, 55.225 44, 55.500 44 C 55.775 44, 56 43.775, 56 43.500 C 56 43.225, 55.775 43, 55.500 43 C 55.225 43, 55 43.225, 55 43.500 M 47.405 45.155 C 46.962 45.870, 47.130 46.038, 47.845 45.595 C 48.998 44.883, 49.393 44, 48.559 44 C 48.316 44, 47.797 44.520, 47.405 45.155 M 38 45.500 C 38 45.775, 38.225 46, 38.500 46 C 38.775 46, 39 45.775, 39 45.500 C 39 45.225, 38.775 45, 38.500 45 C 38.225 45, 38 45.225, 38 45.500 M 53 45.500 C 53 45.775, 53.225 46, 53.500 46 C 53.775 46, 54 45.775, 54 45.500 C 54 45.225, 53.775 45, 53.500 45 C 53.225 45, 53 45.225, 53 45.500 M 57 45.500 C 57 45.775, 57.225 46, 57.500 46 C 57.775 46, 58 45.775, 58 45.500 C 58 45.225, 57.775 45, 57.500 45 C 57.225 45, 57 45.225, 57 45.500 M 40 47.500 C 40 47.775, 40.225 48, 40.500 48 C 40.775 48, 41 47.775, 41 47.500 C 41 47.225, 40.775 47, 40.500 47 C 40.225 47, 40 47.225, 40 47.500 M 46 47.500 C 46 47.775, 46.225 48, 46.500 48 C 46.775 48, 47 47.775, 47 47.500 C 47 47.225, 46.775 47, 46.500 47 C 46.225 47, 46 47.225, 46 47.500 M 49 47.500 C 49 47.775, 49.225 48, 49.500 48 C 49.775 48, 50 47.775, 50 47.500 C 50 47.225, 49.775 47, 49.500 47 C 49.225 47, 49 47.225, 49 47.500 M 55 47.500 C 55 47.775, 55.225 48, 55.500 48 C 55.775 48, 56 47.775, 56 47.500 C 56 47.225, 55.775 47, 55.500 47 C 55.225 47, 55 47.225, 55 47.500 M 38 51.178 C 38 51.495, 38.615 52.266, 39.367 52.890 C 40.417 53.761, 41.056 53.615, 42.117 52.262 C 43.339 50.705, 43.317 50.643, 41.926 51.726 C 40.720 52.666, 40.078 52.678, 39.176 51.776 C 38.529 51.129, 38 50.860, 38 51.178 M 46.333 51.667 C 46.700 52.033, 47.300 52.033, 47.667 51.667 C 48.033 51.300, 47.733 51, 47 51 C 46.267 51, 45.967 51.300, 46.333 51.667 M 49 51.500 C 49 51.775, 49.225 52, 49.500 52 C 49.775 52, 50 51.775, 50 51.500 C 50 51.225, 49.775 51, 49.500 51 C 49.225 51, 49 51.225, 49 51.500 M 53 51.178 C 53 51.495, 53.615 52.266, 54.367 52.890 C 55.417 53.761, 56.056 53.615, 57.117 52.262 C 58.339 50.705, 58.317 50.643, 56.926 51.726 C 55.720 52.666, 55.078 52.678, 54.176 51.776 C 53.529 51.129, 53 50.860, 53 51.178 M 44 54.500 C 44 54.775, 44.225 55, 44.500 55 C 44.775 55, 45 54.775, 45 54.500 C 45 54.225, 44.775 54, 44.500 54 C 44.225 54, 44 54.225, 44 54.500 M 50.405 55.155 C 49.962 55.870, 50.130 56.038, 50.845 55.595 C 51.998 54.883, 52.393 54, 51.559 54 C 51.316 54, 50.797 54.520, 50.405 55.155 M 46.459 57.067 C 45.539 58.556, 46.606 59.365, 48.520 58.631 C 49.404 58.292, 49.847 57.561, 49.504 57.007 C 48.694 55.696, 47.289 55.723, 46.459 57.067 M 41.500 58 C 41.160 58.550, 41.359 59, 41.941 59 C 42.523 59, 43 58.550, 43 58 C 43 57.450, 42.802 57, 42.559 57 C 42.316 57, 41.840 57.450, 41.500 58 M 47.333 57.667 C 47.700 58.033, 48.300 58.033, 48.667 57.667 C 49.033 57.300, 48.733 57, 48 57 C 47.267 57, 46.967 57.300, 47.333 57.667 M 56.500 58 C 56.160 58.550, 56.359 59, 56.941 59 C 57.523 59, 58 58.550, 58 58 C 58 57.450, 57.802 57, 57.559 57 C 57.316 57, 56.840 57.450, 56.500 58 M 39 58.500 C 39 58.775, 39.225 59, 39.500 59 C 39.775 59, 40 58.775, 40 58.500 C 40 58.225, 39.775 58, 39.500 58 C 39.225 58, 39 58.225, 39 58.500 M 54 58.500 C 54 58.775, 54.225 59, 54.500 59 C 54.775 59, 55 58.775, 55 58.500 C 55 58.225, 54.775 58, 54.500 58 C 54.225 58, 54 58.225, 54 58.500 M 45.667 62.667 C 44.182 64.152, 45.175 64.992, 48.250 64.850 C 51.299 64.710, 51.329 64.675, 48.733 64.282 C 47.211 64.052, 46.225 63.445, 46.542 62.932 C 47.207 61.855, 46.647 61.686, 45.667 62.667 M 49 62.500 C 49 62.775, 49.225 63, 49.500 63 C 49.775 63, 50 62.775, 50 62.500 C 50 62.225, 49.775 62, 49.500 62 C 49.225 62, 49 62.225, 49 62.500 M 47.333 66.667 C 47.700 67.033, 48.300 67.033, 48.667 66.667 C 49.033 66.300, 48.733 66, 48 66 C 47.267 66, 46.967 66.300, 47.333 66.667" stroke="none" fill="#7ca669" fill-rule="evenodd"/><path d="M 24.500 18 C 24.840 18.550, 25.343 19, 25.618 19 C 25.893 19, 25.840 18.550, 25.500 18 C 25.160 17.450, 24.657 17, 24.382 17 C 24.107 17, 24.160 17.450, 24.500 18 M 30.500 23 C 30.840 23.550, 31.343 24, 31.618 24 C 31.893 24, 31.840 23.550, 31.500 23 C 31.160 22.450, 30.657 22, 30.382 22 C 30.107 22, 30.160 22.450, 30.500 23 M 6 25.378 C 6 25.585, 6.787 26.373, 7.750 27.128 C 9.336 28.371, 9.371 28.336, 8.128 26.750 C 6.821 25.084, 6 24.555, 6 25.378 M 46 25.500 C 46 25.775, 46.225 26, 46.500 26 C 46.775 26, 47 25.775, 47 25.500 C 47 25.225, 46.775 25, 46.500 25 C 46.225 25, 46 25.225, 46 25.500 M 49 25.500 C 49 25.775, 49.225 26, 49.500 26 C 49.775 26, 50 25.775, 50 25.500 C 50 25.225, 49.775 25, 49.500 25 C 49.225 25, 49 25.225, 49 25.500 M 36.500 28 C 36.840 28.550, 37.343 29, 37.618 29 C 37.893 29, 37.840 28.550, 37.500 28 C 37.160 27.450, 36.657 27, 36.382 27 C 36.107 27, 36.160 27.450, 36.500 28 M 42.335 27.783 C 40.594 27.965, 38.897 28.827, 38.562 29.698 C 38.102 30.897, 38.265 31.025, 39.231 30.223 C 39.933 29.640, 42.081 29.014, 44.004 28.832 C 45.927 28.649, 47.050 28.264, 46.500 27.976 C 45.950 27.688, 44.076 27.601, 42.335 27.783 M 50.333 28.643 C 50.333 29.389, 50.919 30, 51.635 30 C 52.351 30, 52.800 30.563, 52.633 31.250 C 52.465 31.938, 52.517 32.160, 52.749 31.744 C 52.981 31.328, 53.659 31.289, 54.255 31.658 C 54.945 32.084, 55.108 31.723, 54.701 30.664 C 54.350 29.749, 54.499 29, 55.031 29 C 55.564 29, 56 29.927, 56 31.059 C 56 32.191, 56.412 32.864, 56.915 32.553 C 57.418 32.242, 58.057 32.553, 58.336 33.244 C 58.684 34.107, 58.862 34.031, 58.906 33 C 59.015 30.426, 57.423 28.885, 53.813 28.071 C 51.164 27.473, 50.333 27.610, 50.333 28.643 M 12 30.378 C 12 30.585, 12.787 31.373, 13.750 32.128 C 15.336 33.371, 15.371 33.336, 14.128 31.750 C 12.821 30.084, 12 29.555, 12 30.378 M 41.507 30.989 C 41.157 31.555, 41.558 31.723, 42.448 31.382 C 44.180 30.717, 44.497 30, 43.059 30 C 42.541 30, 41.843 30.445, 41.507 30.989 M 47 30.500 C 47 30.775, 47.225 31, 47.500 31 C 47.775 31, 48 30.775, 48 30.500 C 48 30.225, 47.775 30, 47.500 30 C 47.225 30, 47 30.225, 47 30.500 M 38 33.500 C 38 33.775, 38.225 34, 38.500 34 C 38.775 34, 39 33.775, 39 33.500 C 39 33.225, 38.775 33, 38.500 33 C 38.225 33, 38 33.225, 38 33.500 M 18 35.378 C 18 35.585, 18.788 36.373, 19.750 37.128 C 21.336 38.371, 21.371 38.336, 20.128 36.750 C 18.821 35.084, 18 34.555, 18 35.378 M 56 36.500 C 56 36.775, 56.225 37, 56.500 37 C 56.775 37, 57 36.775, 57 36.500 C 57 36.225, 56.775 36, 56.500 36 C 56.225 36, 56 36.225, 56 36.500 M 54.405 40.155 C 53.962 40.870, 54.130 41.038, 54.845 40.595 C 55.998 39.883, 56.393 39, 55.559 39 C 55.316 39, 54.797 39.520, 54.405 40.155 M 24 40.378 C 24 40.585, 24.788 41.373, 25.750 42.128 C 27.336 43.371, 27.371 43.336, 26.128 41.750 C 24.821 40.084, 24 39.555, 24 40.378 M 58.136 43.095 C 58.053 44.679, 58.877 46.432, 60.250 47.595 C 62.482 49.485, 62.487 49.484, 60.841 47.500 C 59.929 46.400, 58.978 44.375, 58.727 43 C 58.272 40.500, 58.272 40.500, 58.136 43.095 M 46.473 43.956 C 46.798 44.482, 47.725 44.659, 48.532 44.349 C 50.599 43.556, 50.356 43, 47.941 43 C 46.809 43, 46.148 43.430, 46.473 43.956 M 39.553 44.915 C 39.231 45.436, 39.394 46.125, 39.915 46.447 C 40.436 46.769, 41.125 46.606, 41.447 46.085 C 41.769 45.564, 41.606 44.875, 41.085 44.553 C 40.564 44.231, 39.875 44.394, 39.553 44.915 M 54.553 44.915 C 54.231 45.436, 54.394 46.125, 54.915 46.447 C 55.436 46.769, 56.125 46.606, 56.447 46.085 C 56.769 45.564, 56.606 44.875, 56.085 44.553 C 55.564 44.231, 54.875 44.394, 54.553 44.915 M 30.500 46 C 30.840 46.550, 31.343 47, 31.618 47 C 31.893 47, 31.840 46.550, 31.500 46 C 31.160 45.450, 30.657 45, 30.382 45 C 30.107 45, 30.160 45.450, 30.500 46 M 46.323 48.601 C 45.615 50.445, 48.034 52.366, 49.374 51.026 C 50.466 49.934, 49.464 47, 48 47 C 47.415 47, 46.661 47.720, 46.323 48.601 M 36.975 54.796 C 37.458 59.500, 37.458 59.500, 37.797 55.618 C 37.984 53.483, 37.767 51.367, 37.315 50.915 C 36.863 50.463, 36.710 52.210, 36.975 54.796 M 39.553 50.915 C 39.231 51.436, 39.394 52.125, 39.915 52.447 C 40.436 52.769, 41.125 52.606, 41.447 52.085 C 41.769 51.564, 41.606 50.875, 41.085 50.553 C 40.564 50.231, 39.875 50.394, 39.553 50.915 M 54.553 50.915 C 54.231 51.436, 54.394 52.125, 54.915 52.447 C 55.436 52.769, 56.125 52.606, 56.447 52.085 C 56.769 51.564, 56.606 50.875, 56.085 50.553 C 55.564 50.231, 54.875 50.394, 54.553 50.915 M 65 51.378 C 65 51.585, 65.787 52.373, 66.750 53.128 C 68.336 54.371, 68.371 54.336, 67.128 52.750 C 65.821 51.084, 65 50.555, 65 51.378 M 39.635 56.781 C 39.358 57.229, 39.490 58.174, 39.927 58.882 C 40.548 59.886, 40.852 59.828, 41.317 58.616 C 41.946 56.976, 40.494 55.392, 39.635 56.781 M 54.635 56.781 C 54.358 57.229, 54.490 58.174, 54.927 58.882 C 55.548 59.886, 55.852 59.828, 56.317 58.616 C 56.946 56.976, 55.494 55.392, 54.635 56.781 M 71 56.378 C 71 56.585, 71.787 57.373, 72.750 58.128 C 74.336 59.371, 74.371 59.336, 73.128 57.750 C 71.821 56.084, 71 55.555, 71 56.378 M 77 61.378 C 77 61.585, 77.787 62.373, 78.750 63.128 C 80.336 64.371, 80.371 64.336, 79.128 62.750 C 77.821 61.084, 77 60.555, 77 61.378 M 42 65.500 C 42 65.775, 42.225 66, 42.500 66 C 42.775 66, 43 65.775, 43 65.500 C 43 65.225, 42.775 65, 42.500 65 C 42.225 65, 42 65.225, 42 65.500 M 53 65.393 C 53 65.609, 53.698 66.054, 54.552 66.382 C 55.442 66.723, 55.843 66.555, 55.493 65.989 C 54.906 65.038, 53 64.583, 53 65.393 M 45.333 66.667 C 45.700 67.033, 46.300 67.033, 46.667 66.667 C 47.033 66.300, 46.733 66, 46 66 C 45.267 66, 44.967 66.300, 45.333 66.667 M 49.333 66.667 C 49.700 67.033, 50.300 67.033, 50.667 66.667 C 51.033 66.300, 50.733 66, 50 66 C 49.267 66, 48.967 66.300, 49.333 66.667 M 83 66.378 C 83 66.585, 83.787 67.373, 84.750 68.128 C 86.336 69.371, 86.371 69.336, 85.128 67.750 C 83.821 66.084, 83 65.555, 83 66.378 M 59 69.378 C 59 69.585, 59.788 70.373, 60.750 71.128 C 62.336 72.371, 62.371 72.336, 61.128 70.750 C 59.821 69.084, 59 68.555, 59 69.378 M 89.500 72 C 89.840 72.550, 90.343 73, 90.618 73 C 90.893 73, 90.840 72.550, 90.500 72 C 90.160 71.450, 89.657 71, 89.382 71 C 89.107 71, 89.160 71.450, 89.500 72 M 65 74.378 C 65 74.585, 65.787 75.373, 66.750 76.128 C 68.336 77.371, 68.371 77.336, 67.128 75.750 C 65.821 74.084, 65 73.555, 65 74.378 M 71 79.500 C 71 79.775, 71.225 80, 71.500 80 C 71.775 80, 72 79.775, 72 79.500 C 72 79.225, 71.775 79, 71.500 79 C 71.225 79, 71 79.225, 71 79.500" stroke="none" fill="#c9c9c9" fill-rule="evenodd"/><path d="M 44.411 33.500 C 44.829 35.166, 44.615 36.029, 43.769 36.086 C 43.071 36.133, 43.850 36.584, 45.500 37.087 C 47.972 37.842, 48.792 37.651, 50.160 36.001 C 52.284 33.442, 52.788 33.483, 53.180 36.250 C 53.612 39.286, 55.305 38.196, 55.695 34.632 C 55.962 32.190, 55.712 31.842, 54.004 32.289 C 52.902 32.577, 52 32.405, 52 31.906 C 52 31.408, 51.111 31, 50.025 31 C 48.331 31, 48.185 31.356, 49 33.500 C 49.748 35.466, 49.636 36, 48.475 36 C 47.568 36, 47 35.037, 47 33.500 C 47 31.870, 46.441 31, 45.392 31 C 44.175 31, 43.936 31.609, 44.411 33.500 M 40.330 34.860 C 40.849 39.598, 42.628 41, 48.122 41 C 54.961 41, 54.233 39.164, 47.250 38.800 C 42.734 38.564, 41.579 38.178, 41.869 37 C 42.627 33.925, 42.466 32.703, 41.249 32.274 C 40.385 31.969, 40.101 32.767, 40.330 34.860 M 54 37.500 C 54 37.775, 54.225 38, 54.500 38 C 54.775 38, 55 37.775, 55 37.500 C 55 37.225, 54.775 37, 54.500 37 C 54.225 37, 54 37.225, 54 37.500" stroke="none" fill="#d41125" fill-rule="evenodd"/><path d="M 47.333 24.667 C 47.700 25.033, 48.300 25.033, 48.667 24.667 C 49.033 24.300, 48.733 24, 48 24 C 47.267 24, 46.967 24.300, 47.333 24.667 M 41 29.500 C 41 29.775, 41.225 30, 41.500 30 C 41.775 30, 42 29.775, 42 29.500 C 42 29.225, 41.775 29, 41.500 29 C 41.225 29, 41 29.225, 41 29.500 M 44.813 29.683 C 45.534 29.972, 46.397 29.936, 46.729 29.604 C 47.061 29.272, 46.471 29.036, 45.417 29.079 C 44.252 29.127, 44.015 29.364, 44.813 29.683 M 49 29.500 C 49 29.775, 49.225 30, 49.500 30 C 49.775 30, 50 29.775, 50 29.500 C 50 29.225, 49.775 29, 49.500 29 C 49.225 29, 49 29.225, 49 29.500 M 39 30.500 C 39 30.775, 39.225 31, 39.500 31 C 39.775 31, 40 30.775, 40 30.500 C 40 30.225, 39.775 30, 39.500 30 C 39.225 30, 39 30.225, 39 30.500 M 55 30.500 C 55 30.775, 55.225 31, 55.500 31 C 55.775 31, 56 30.775, 56 30.500 C 56 30.225, 55.775 30, 55.500 30 C 55.225 30, 55 30.225, 55 30.500 M 42.761 31.577 C 42.440 32.097, 42.812 33.391, 43.589 34.452 C 45.104 36.524, 45.329 35.698, 44.102 32.566 C 43.686 31.503, 43.082 31.058, 42.761 31.577 M 47.229 33.500 C 47.344 34.882, 48.064 36, 48.841 36 C 49.975 36, 50.006 36.288, 49 37.500 C 48.248 38.406, 48.167 39, 48.794 39 C 49.366 39, 50.068 38.438, 50.354 37.750 C 50.731 36.844, 51.272 36.990, 52.319 38.279 C 53.601 39.859, 53.832 39.881, 54.370 38.477 C 54.721 37.564, 54.559 37.154, 53.989 37.507 C 53.445 37.843, 53 37.641, 53 37.059 C 53 36.477, 52.314 36, 51.475 36 C 50.637 36, 49.523 34.875, 49 33.500 C 48.477 32.125, 47.818 31, 47.536 31 C 47.254 31, 47.116 32.125, 47.229 33.500 M 38 32.500 C 38 32.775, 38.225 33, 38.500 33 C 38.775 33, 39 32.775, 39 32.500 C 39 32.225, 38.775 32, 38.500 32 C 38.225 32, 38 32.225, 38 32.500 M 39 34.500 C 39 34.775, 39.225 35, 39.500 35 C 39.775 35, 40 34.775, 40 34.500 C 40 34.225, 39.775 34, 39.500 34 C 39.225 34, 39 34.225, 39 34.500 M 52 34.500 C 52 34.775, 52.225 35, 52.500 35 C 52.775 35, 53 34.775, 53 34.500 C 53 34.225, 52.775 34, 52.500 34 C 52.225 34, 52 34.225, 52 34.500 M 56 34.500 C 56 34.775, 56.225 35, 56.500 35 C 56.775 35, 57 34.775, 57 34.500 C 57 34.225, 56.775 34, 56.500 34 C 56.225 34, 56 34.225, 56 34.500 M 42.039 35.500 C 41.179 39.972, 41.187 40.213, 42.163 39.237 C 42.727 38.673, 42.973 37.377, 42.710 36.356 C 42.447 35.335, 42.145 34.950, 42.039 35.500 M 45 38 C 45 38.550, 45.450 39, 46 39 C 46.550 39, 47 38.550, 47 38 C 47 37.450, 46.550 37, 46 37 C 45.450 37, 45 37.450, 45 38 M 44.393 53.582 C 44.727 54.452, 45 55.352, 45 55.582 C 45 56.539, 49.694 55.906, 50.800 54.800 C 52.878 52.722, 52.128 52, 47.893 52 C 44.559 52, 43.900 52.298, 44.393 53.582 M 47.333 57.667 C 47.700 58.033, 48.300 58.033, 48.667 57.667 C 49.033 57.300, 48.733 57, 48 57 C 47.267 57, 46.967 57.300, 47.333 57.667 M 46.755 61.500 C 46.395 63.384, 46.702 64, 48 64 C 49.298 64, 49.605 63.384, 49.245 61.500 C 48.982 60.125, 48.422 59, 48 59 C 47.578 59, 47.018 60.125, 46.755 61.500" stroke="none" fill="#bbab0b" fill-rule="evenodd"/><path d="M 6.577 18.920 C 5.039 20.525, 3.942 22.275, 4.140 22.808 C 4.882 24.805, 37.347 51.072, 38.890 50.924 C 42.624 50.566, 43.312 50.919, 41.990 52.512 C 41.035 53.663, 40.407 53.753, 39.367 52.890 C 38.244 51.958, 38 52.588, 38 56.423 C 38 60.090, 38.545 61.636, 40.544 63.635 C 42.791 65.882, 43.767 66.140, 48.913 65.843 C 54.739 65.508, 54.739 65.508, 63.479 72.754 C 72.219 80, 72.219 80, 79.422 80 C 86.108 80, 86.831 79.786, 89.478 77.023 C 92.329 74.047, 92.329 74.047, 89.893 72.130 C 88.553 71.076, 81.166 64.950, 73.478 58.517 C 58.654 46.112, 57.175 45.107, 56.149 46.744 C 55.714 47.438, 55.141 47.391, 54.409 46.602 C 53.617 45.747, 53.685 45.083, 54.659 44.173 C 55.451 43.434, 56 43.347, 56 43.961 C 56 44.532, 56.450 45, 57 45 C 57.550 45, 58 44.100, 58 43 C 58 41.185, 57.328 40.999, 50.750 40.985 C 46.763 40.976, 43 40.639, 42.390 40.235 C 40.669 39.096, 37.575 32.693, 37.849 30.839 C 38 29.823, 35.063 26.618, 30.298 22.599 C 22.500 16.020, 22.500 16.020, 15.937 16.010 C 9.984 16.001, 9.114 16.271, 6.577 18.920 M 47.583 25.866 C 47.152 26.563, 47.070 27.403, 47.400 27.733 C 48.295 28.628, 49.271 27.312, 48.787 25.862 C 48.449 24.846, 48.213 24.846, 47.583 25.866 M 39 32.059 C 39 32.641, 39.450 32.840, 40 32.500 C 40.550 32.160, 41 31.684, 41 31.441 C 41 31.198, 40.550 31, 40 31 C 39.450 31, 39 31.477, 39 32.059 M 46.736 42.598 C 46.407 42.927, 46.384 43.838, 46.686 44.623 C 47.104 45.713, 47.558 45.781, 48.606 44.912 C 49.360 44.286, 49.731 43.374, 49.430 42.887 C 48.797 41.863, 47.599 41.735, 46.736 42.598 M 39.409 44.387 C 38.621 45.245, 38.631 45.866, 39.447 46.628 C 40.241 47.369, 40.921 47.310, 41.745 46.428 C 42.640 45.470, 42.631 44.942, 41.708 44.188 C 40.899 43.526, 40.140 43.592, 39.409 44.387 M 46 49.500 C 46 50.875, 45.550 52, 45 52 C 43.557 52, 43.767 54.973, 45.250 55.545 C 46.751 56.123, 47.314 61.688, 45.957 62.526 C 44.016 63.726, 45.087 65, 48.035 65 C 50.721 65, 50.952 64.778, 50.040 63.075 C 48.693 60.557, 49.086 56.181, 50.716 55.555 C 52.224 54.977, 52.461 52, 51 52 C 50.450 52, 50 50.875, 50 49.500 C 50 47.667, 49.467 47, 48 47 C 46.533 47, 46 47.667, 46 49.500 M 54.112 50.931 C 53.196 51.497, 53.246 51.959, 54.320 52.851 C 55.416 53.760, 55.996 53.710, 56.893 52.629 C 57.784 51.556, 57.735 51.112, 56.685 50.709 C 55.933 50.421, 54.776 50.521, 54.112 50.931 M 39.473 57.044 C 38.568 58.508, 39.884 59.982, 41.532 59.349 C 42.339 59.040, 43 58.432, 43 58 C 43 56.761, 40.129 55.982, 39.473 57.044 M 54.473 57.044 C 53.568 58.508, 54.884 59.982, 56.532 59.349 C 57.339 59.040, 58 58.432, 58 58 C 58 56.761, 55.129 55.982, 54.473 57.044" stroke="none" fill="#289ad6" fill-rule="evenodd"/><path d="M 30.404 22.326 C 36.988 27.799, 38.450 28.593, 41.257 28.215 C 43.040 27.974, 45.293 26.815, 46.263 25.639 C 48.020 23.507, 48.030 23.506, 49.566 25.500 C 50.987 27.345, 50.947 27.525, 49.053 27.820 C 47.924 27.995, 47 28.547, 47 29.045 C 47 29.568, 48.084 29.538, 49.565 28.975 C 52.884 27.713, 56.290 27.721, 55.507 28.989 C 55.165 29.542, 55.539 29.730, 56.358 29.416 C 58.813 28.474, 59.142 32.299, 56.972 36.538 C 54.943 40.500, 54.943 40.500, 56.972 40.820 C 58.359 41.038, 59 41.900, 59 43.547 C 59 45.435, 62.507 48.884, 75.250 59.526 L 91.500 73.098 91.767 47.371 C 92.128 12.688, 96.040 16, 54.711 16 L 22.796 16 30.404 22.326 M 4 49.191 C 4 83.269, 0.242 80.110, 40.375 79.765 L 71.110 79.500 62.891 72.713 C 55.025 66.218, 54.496 65.953, 50.586 66.537 C 48.339 66.872, 45.263 66.675, 43.750 66.098 C 40.174 64.734, 37.008 59.457, 37.004 54.850 C 37 51.417, 36.330 50.647, 25.750 41.922 C 19.562 36.820, 12.138 30.645, 9.250 28.201 L 4 23.757 4 49.191 M 40.500 30 C 40.840 30.550, 41.343 31, 41.618 31 C 41.893 31, 41.840 30.550, 41.500 30 C 41.160 29.450, 40.657 29, 40.382 29 C 40.107 29, 40.160 29.450, 40.500 30 M 43 29.500 C 43 29.775, 43.225 30, 43.500 30 C 43.775 30, 44 29.775, 44 29.500 C 44 29.225, 43.775 29, 43.500 29 C 43.225 29, 43 29.225, 43 29.500 M 52 30.500 C 52 30.775, 52.225 31, 52.500 31 C 52.775 31, 53 30.775, 53 30.500 C 53 30.225, 52.775 30, 52.500 30 C 52.225 30, 52 30.225, 52 30.500 M 55 31.500 C 55 31.775, 55.225 32, 55.500 32 C 55.775 32, 56 31.775, 56 31.500 C 56 31.225, 55.775 31, 55.500 31 C 55.225 31, 55 31.225, 55 31.500" stroke="none" fill="#eeefeb" fill-rule="evenodd"/></svg>